PathFileType	4	(X/Y/Z)	/Users/itak/Documents/Research/Walk-IL/dataset/trc/00399_00012.trc
DataRate	CameraRate	NumFrames	NumMarkers	Units	OrigDataRate	OrigDataStartFrame	OrigNumFrames
100.000000	100.000000	4	53	mm	100.000000	91	732
Frame#	Time	RPSI			LPSI			L3			STRN			T10			C7			CLAV			RBAK			LBAK			LSHO			LUPA			LAEL			LAOL			LWTS			LWPS			LFRA			LIFD			LHPS			LHTS			RSHO			RUPA			RAEL			RAOL			RWTS			RWPS			RFRA			RIFD			RHTS			RHPS			RBHD			LFHD			RFHD			LBHD			LHIP			RHIP			RASI			LASI			LKNE			LTHI			LANK			LTIP			LTOE			LMT1			LMT5			LHEE			RKNE			RTHI			RANK			RTIP			RTOE			RMT1			RMT5			RHEE			
		X1	Y1	Z1	X2	Y2	Z2	X3	Y3	Z3	X4	Y4	Z4	X5	Y5	Z5	X6	Y6	Z6	X7	Y7	Z7	X8	Y8	Z8	X9	Y9	Z9	X10	Y10	Z10	X11	Y11	Z11	X12	Y12	Z12	X13	Y13	Z13	X14	Y14	Z14	X15	Y15	Z15	X16	Y16	Z16	X17	Y17	Z17	X18	Y18	Z18	X19	Y19	Z19	X20	Y20	Z20	X21	Y21	Z21	X22	Y22	Z22	X23	Y23	Z23	X24	Y24	Z24	X25	Y25	Z25	X26	Y26	Z26	X27	Y27	Z27	X28	Y28	Z28	X29	Y29	Z29	X30	Y30	Z30	X31	Y31	Z31	X32	Y32	Z32	X33	Y33	Z33	X34	Y34	Z34	X35	Y35	Z35	X36	Y36	Z36	X37	Y37	Z37	X38	Y38	Z38	X39	Y39	Z39	X40	Y40	Z40	X41	Y41	Z41	X42	Y42	Z42	X43	Y43	Z43	X44	Y44	Z44	X45	Y45	Z45	X46	Y46	Z46	X47	Y47	Z47	X48	Y48	Z48	X49	Y49	Z49	X50	Y50	Z50	X51	Y51	Z51	X52	Y52	Z52	X53	Y53	Z53	

92	0.91	227.1170043945312	956.1640625	1239.832275390625	200.0836334228516	937.3657836914062	1110.810791015625	220.6427154541016	1023.017639160156	1184.285766601562	468.5310668945312	1158.008666992188	1142.240234375	214.6668853759766	1128.91357421875	1181.377685546875	276.2123413085938	1371.963256835938	1166.7626953125	425.4071960449219	1281.258056640625	1146.827758789062	233.7484283447266	1232.136352539062	1246.549682617188	241.2485809326172	1334.483520507812	1067.884887695312	319.2286376953125	1343.388671875	1003.10888671875	275.5713195800781	1229.565307617188	938.5570068359375	275.5775756835938	1032.680908203125	908.8676147460938	237.9961242675781	1011.278869628906	982.5353393554688	355.1037292480469	807.9544067382812	926.2573852539062	288.7562561035156	802.77734375	876.7470703125	279.7857360839844	927.4603271484375	894.1251220703125	331.7476806640625	628.8001098632812	920.6611938476562	295.0174865722656	715.5999145507812	881.2421264648438	354.4564514160156	709.7969360351562	902.2001342773438	362.3641357421875	1346.780029296875	1313.2373046875	357.9208984375	1283.008422851562	1374.498413085938	364.9114379882812	1021.670593261719	1424.420043945312	333.8484497070312	1009.006103515625	1332.062255859375	482.6898498535156	801.1356811523438	1397.177978515625	443.2113647460938	795.2124633789062	1458.984741210938	389.544921875	957.1450805664062	1440.58349609375	478.5371398925781	628.8611450195312	1412.1904296875	499.5914611816406	697.602783203125	1422.660278320312	445.6293334960938	707.13232421875	1464.849975585938	361.4653625488281	1564.017211914062	1234.858764648438	420.5673522949219	1543.195556640625	1045.109741210938	469.2594299316406	1562.2509765625	1155.779174804688	280.4872741699219	1538.39404296875	1097.080322265625	276.1662902832031	925.11083984375	988.4271240234375	323.8788452148438	925.5609130859375	1342.76513671875	451.6856079101562	917.5982666015625	1273.324340820312	392.24609375	922.1992797851562	1018.188598632812	482.9222106933594	465.8695678710938	995.9939575195312	415.5020141601562	589.8297729492188	985.9476318359375	581.9229125976562	30.56818008422852	1052.062133789062	528.535888671875	234.9998474121094	1012.17138671875	781.3767700195312	111.0860290527344	1033.057495117188	728.4951171875	87.91426086425781	1089.717407226562	687.5910034179688	65.66336822509766	992.94677734375	568.0972900390625	23.82727813720703	1117.139038085938	224.7474365234375	454.0481567382812	1329.150268554688	348.6393737792969	692.8313598632812	1334.755249023438	43.47610855102539	64.95912933349609	1308.93310546875	191.9346313476562	330.9727478027344	1319.218505859375	222.0188446044922	37.98259353637695	1251.51953125	146.7627563476562	45.35721206665039	1219.470336914062	124.4456481933594	45.31544876098633	1318.115844726562	-31.39289283752441	64.63532257080078	1254.482666015625	
93	0.92	235.913818359375	955.0797119140625	1237.322265625	208.6963500976562	936.0804443359375	1108.359252929688	229.1866302490234	1021.930114746094	1181.739135742188	476.9839172363281	1156.878662109375	1138.45458984375	223.412109375	1127.836059570312	1178.659545898438	284.7105712890625	1370.917724609375	1163.328735351562	433.8989868164062	1280.145141601562	1142.9423828125	242.8419952392578	1231.10009765625	1243.446166992188	249.3476715087891	1333.238525390625	1064.552124023438	327.0746154785156	1342.064697265625	999.5458984375	283.1294860839844	1228.130004882812	935.3836669921875	282.7298583984375	1031.207885742188	906.0193481445312	245.3901519775391	1009.940307617188	979.9082641601562	361.06787109375	806.0252685546875	924.131591796875	294.9121704101562	801.3465576171875	874.3574829101562	286.5271606445312	925.9772338867188	891.5281982421875	336.0296630859375	627.0462646484375	918.724609375	300.221923828125	714.1060180664062	879.0137329101562	359.5952758789062	707.774169921875	900.2704467773438	371.4869689941406	1345.879638671875	1309.468994140625	367.3499755859375	1282.18603515625	1370.83203125	374.6169738769531	1021.015563964844	1421.684936523438	343.0680236816406	1008.077697753906	1329.146606445312	492.1915588378906	800.4906005859375	1394.435913085938	452.9167785644531	794.7097778320312	1456.370361328125	399.1396179199219	956.5469970703125	1437.685424804688	488.2160034179688	628.2481079101562	1409.963256835938	509.3035278320312	697.0751953125	1420.17822265625	455.3886413574219	706.6528930664062	1462.497924804688	369.4044799804688	1562.785522460938	1231.597900390625	427.4552307128906	1542.705688476562	1041.416748046875	476.7188415527344	1561.846923828125	1151.825439453125	287.771240234375	1536.893676757812	1094.210327148438	284.3599853515625	924.0216064453125	985.8805541992188	332.8500061035156	924.5610961914062	1340.179809570312	460.63525390625	916.5629272460938	1270.583618164062	400.5884704589844	920.9702758789062	1015.380981445312	491.0745544433594	464.8902893066406	993.7958374023438	423.7268676757812	588.6591796875	983.5865478515625	584.8026123046875	29.45522880554199	1052.08349609375	534.1449584960938	233.4339447021484	1011.287536621094	785.0783081054688	106.443962097168	1029.585571289062	732.7976684570312	84.25253295898438	1087.309814453125	690.0695190429688	62.40045928955078	991.3435668945312	571.8148193359375	23.08943367004395	1117.313842773438	231.5616912841797	453.8278198242188	1326.972412109375	356.7340087890625	691.9532470703125	1332.106689453125	44.32832336425781	67.01948547363281	1309.052856445312	196.9072418212891	331.1370544433594	1317.751342773438	222.3498840332031	37.76547622680664	1251.599487304688	147.2111053466797	45.7756462097168	1219.61669921875	125.1733016967773	45.63836288452148	1318.191772460938	-30.47767066955566	68.05171966552734	1254.605346679688	
94	0.93	245.0918579101562	954.1598510742188	1234.717529296875	217.6657104492188	934.9990844726562	1105.763916015625	238.0023040771484	1020.978759765625	1179.051025390625	485.6189575195312	1156.00048828125	1134.468627929688	232.3058471679688	1126.931762695312	1175.819702148438	293.2995910644531	1370.070068359375	1159.72412109375	442.5236206054688	1279.268676757812	1138.868896484375	252.0825653076172	1230.218872070312	1240.1728515625	257.5315551757812	1332.202880859375	1061.037353515625	335.0344848632812	1340.948486328125	995.7910766601562	290.8293762207031	1226.874633789062	932.0328979492188	290.000244140625	1029.917236328125	903.0707397460938	252.9349365234375	1008.800476074219	977.2044067382812	367.31201171875	804.3519287109375	921.94140625	301.3439636230469	800.0953979492188	871.9251708984375	293.4605102539062	924.6621704101562	888.8609008789062	340.7982177734375	625.5411987304688	916.7548828125	305.8079223632812	712.8101196289062	876.7525024414062	365.1276550292969	706.0189819335938	898.2869873046875	380.7195434570312	1345.198608398438	1305.497802734375	376.9454040527344	1281.591430664062	1366.977905273438	384.5220642089844	1020.597290039062	1418.822631835938	352.4001159667969	1007.387878417969	1326.08447265625	501.7369995117188	800.0241088867188	1391.5322265625	462.7102966308594	794.42919921875	1453.614135742188	408.8981628417969	956.1952514648438	1434.627563476562	497.8215637207031	627.8295288085938	1407.5859375	519.0272827148438	696.7301025390625	1417.538696289062	465.1856384277344	706.3966674804688	1460.012084960938	377.39892578125	1561.7646484375	1228.200439453125	434.4561462402344	1542.501342773438	1037.6220703125	484.2592163085938	1561.6904296875	1147.770751953125	295.1557006835938	1535.66259765625	1091.1826171875	292.8583068847656	923.164794921875	983.199951171875	342.2585144042969	923.72412109375	1337.443359375	469.9678649902344	915.719482421875	1267.605224609375	409.1932373046875	920.01904296875	1012.3603515625	499.2390441894531	464.0289001464844	991.5579223632812	432.1536560058594	587.6890869140625	981.1181030273438	586.4935302734375	28.66446304321289	1052.487548828125	539.3215942382812	231.9137420654297	1010.585327148438	787.9902954101562	100.8008880615234	1026.294921875	736.2220458984375	79.90087127685547	1085.1484375	691.491455078125	58.80018615722656	990.0697631835938	574.3729858398438	22.71784210205078	1117.837768554688	238.8722839355469	453.7587585449219	1324.75634765625	365.3338623046875	691.2341918945312	1329.294189453125	45.38917541503906	69.39866638183594	1309.302612304688	202.2854766845703	331.5148315429688	1316.310791015625	222.671630859375	37.60470199584961	1251.6875	147.7378234863281	46.35908889770508	1219.821411132812	125.9844055175781	45.98511505126953	1318.3505859375	-29.33448600769043	71.99596405029297	1254.864501953125	
95	0.9400000000000001	254.6940155029297	953.4683227539062	1232.0087890625	227.021728515625	934.1807250976562	1103.023803710938	247.1498260498047	1020.173278808594	1176.210571289062	494.43896484375	1155.411865234375	1130.28271484375	241.3482208251953	1126.213745117188	1172.858276367188	301.9407653808594	1369.43408203125	1155.953735351562	451.26513671875	1278.663940429688	1134.617309570312	261.4519653320312	1229.493408203125	1236.730102539062	265.7836303710938	1331.392944335938	1057.356689453125	343.0846557617188	1340.069946289062	991.8557739257812	298.6505432128906	1225.821166992188	928.5092163085938	297.3873901367188	1028.829467773438	900.0135498046875	260.6266174316406	1007.884948730469	974.4190063476562	373.8417358398438	802.9678344726562	919.6666259765625	308.0310974121094	799.0449829101562	869.4498291015625	300.5758972167969	923.5416870117188	886.1227416992188	346.0864562988281	624.3104248046875	914.7576293945312	311.7757568359375	711.7297973632812	874.4671630859375	371.0664672851562	704.5637817382812	896.2381591796875	390.0258178710938	1344.762084960938	1301.343139648438	386.6571350097656	1281.239379882812	1362.9453125	394.5969848632812	1020.428405761719	1415.793823242188	361.8612365722656	1006.953674316406	1322.869995117188	511.3215942382812	799.7557373046875	1388.467529296875	472.5870056152344	794.3932495117188	1450.718139648438	418.8162231445312	956.1079711914062	1431.405883789062	507.3583374023438	627.62646484375	1405.054565429688	528.753173828125	696.5825805664062	1414.74462890625	475.0125732421875	706.38525390625	1457.397216796875	385.4556579589844	1560.998901367188	1224.67041015625	441.5662231445312	1542.592163085938	1033.723754882812	491.8791198730469	1561.786254882812	1143.617919921875	302.6317749023438	1534.7548828125	1088.005126953125	301.6508483886719	922.5753784179688	980.3845825195312	352.1213684082031	923.0899047851562	1334.545654296875	479.7000122070312	915.0944213867188	1264.3662109375	418.0557250976562	919.380126953125	1009.123107910156	507.3280029296875	463.2819519042969	989.2821655273438	440.6794128417969	586.9141235351562	978.554443359375	587.4366455078125	28.29388427734375	1053.130126953125	544.26513671875	230.5254364013672	1009.965454101562	790.4799194335938	94.48162078857422	1023.261413574219	739.087890625	75.12150573730469	1083.2490234375	692.302978515625	55.13202285766602	989.08984375	576.1724853515625	22.7855281829834	1118.562866210938	246.7237701416016	453.8579711914062	1322.53271484375	374.4725646972656	690.69970703125	1326.316650390625	46.70953750610352	72.11488342285156	1309.717407226562	208.1159515380859	332.1304016113281	1314.93408203125	222.9696044921875	37.49875640869141	1251.77978515625	148.3522796630859	47.12469863891602	1220.09912109375	126.8848419189453	46.3470344543457	1318.604858398438	-27.90571594238281	76.52832794189453	1255.2978515625	
